<svg version="1.1" xmlns="http://www.w3.org/2000/svg" xmlns:xlink="http://www.w3.org/1999/xlink" width="998" height="455" viewBox="0,0,256,116.7125"><g fill="none" fill-rule="nonzero" stroke="none" stroke-width="none" stroke-linecap="none" stroke-linejoin="miter" stroke-miterlimit="10" stroke-dasharray="" stroke-dashoffset="0" font-family="none" font-weight="none" font-size="none" text-anchor="none" style="mix-blend-mode: normal"><g transform="translate(1.81765,-3.89581) scale(0.25651,0.25651)"><path d="M263.055,275.753c-4.314,0.953 -7.039,5.223 -6.086,9.537c0.953,4.314 5.223,7.039 9.537,6.086zM266.506,291.376c113.284,-25.023 273.471,-48.399 386.864,-37.848c28.279,2.632 53.347,7.35 73.909,14.528c20.616,7.197 36.151,16.675 46.042,28.458c9.691,11.546 14.416,25.826 12.598,43.927c-1.846,18.395 -10.496,40.976 -28.256,68.398l13.43,8.698c18.514,-28.586 28.551,-53.628 30.746,-75.497c2.225,-22.163 -3.652,-40.787 -16.263,-55.813c-12.412,-14.787 -30.88,-25.546 -53.024,-33.277c-22.198,-7.749 -48.648,-12.649 -77.7,-15.353c-115.933,-10.787 -278.092,13.04 -391.797,38.156z" fill="#ff2b2b" stroke="none" stroke-width="1" stroke-linecap="butt"></path><path d="M763.708,405.902c-4.35,0.772 -7.25,4.925 -6.477,9.276c0.772,4.35 4.925,7.25 9.275,6.477zM766.506,421.655c28.926,-5.137 72.161,-20.374 108.635,-49.607c36.673,-29.392 66.755,-73.188 67.948,-134.897l-15.997,-0.309c-1.082,55.967 -28.135,95.614 -61.957,122.721c-34.02,27.265 -74.639,41.581 -101.427,46.339z" fill="#ff2b2b" stroke="none" stroke-width="1" stroke-linecap="butt"></path><path d="M900.003,262.635c-2.177,3.844 -0.825,8.726 3.02,10.903c3.845,2.177 8.726,0.825 10.903,-3.02zM913.926,270.518c3.689,-6.514 9.703,-15.873 15.697,-22.86c3.046,-3.549 5.709,-6.037 7.741,-7.337c2.39,-1.529 1.581,-0.074 -0.27,-1.122l7.883,-13.923c-6.281,-3.557 -12.606,-0.756 -16.237,1.568c-3.99,2.553 -7.853,6.426 -11.26,10.396c-6.909,8.053 -13.501,18.372 -17.477,25.395z" fill="#ff2b2b" stroke="none" stroke-width="1" stroke-linecap="butt"></path><path d="M951.908,278.406c-0.487,-15.697 -4.029,-46.963 -14.296,-46.451" fill="none" stroke="#ff2b2b" stroke-width="16" stroke-linecap="round"></path><path d="M149.002,282.147c-1.988,3.946 -0.402,8.756 3.544,10.745c3.945,1.988 8.756,0.402 10.744,-3.544zM163.29,289.348c43.575,-86.461 86.601,-132.485 121.96,-155.204c35.444,-22.773 62.644,-21.904 75.857,-16.115l6.421,-14.655c-19.538,-8.5609 -52.457,-7.4081 -90.927,17.31c-38.555,24.772 -83.239,73.446 -127.599,161.463z" fill="#ff2b2b" stroke="none" stroke-width="1" stroke-linecap="butt"></path><path d="M270.364,288.765c-3.149,3.098 -8.214,3.057 -11.313,-0.092c-3.099,-3.15 -3.057,-8.215 0.092,-11.314zM259.143,277.359c58.792,-57.842 86.764,-97.867 98.191,-123.972c5.715,-13.054 7.031,-22.039 6.506,-27.733c-0.508,-5.506 -2.626,-7.52 -3.913,-8.246l7.859,-13.937c6.801,3.835 11.104,11.154 11.986,20.713c0.864,9.371 -1.461,21.183 -7.781,35.62c-12.64,28.875 -42.308,70.6 -101.627,128.961z" fill="#ff2b2b" stroke="none" stroke-width="1" stroke-linecap="butt"></path><path d="M148.757,279.79c-2.006,3.936 -0.442,8.754 3.495,10.76c3.936,2.007 8.754,0.442 10.76,-3.494zM163.012,287.056c41.173,-80.774 81.883,-123.68 115.326,-144.814c33.529,-21.187 59.256,-20.292 71.711,-14.892l6.365,-14.679c-18.68,-8.1 -50.051,-7.065 -86.623,16.046c-36.659,23.165 -79.054,68.716 -121.034,151.073z" fill="#ff2b2b" stroke="none" stroke-width="1" stroke-linecap="butt"></path><path d="M270.433,288.696c-3.111,3.137 -8.176,3.157 -11.313,0.046c-3.137,-3.112 -3.157,-8.177 -0.046,-11.314zM259.074,277.428c53.496,-53.929 78.502,-91.55 88.41,-116.214c4.949,-12.318 5.916,-20.875 5.254,-26.365c-0.645,-5.355 -2.744,-7.485 -4.071,-8.279l8.221,-13.727c6.413,3.84 10.626,10.892 11.735,20.092c1.092,9.064 -0.745,20.435 -6.292,34.243c-11.082,27.586 -37.827,67.009 -91.898,121.518z" fill="#ff2b2b" stroke="none" stroke-width="1" stroke-linecap="butt"></path><path d="M40.9462,287.996c-0.8594,4.334 1.9573,8.544 6.2912,9.403c4.3339,0.86 8.5438,-1.957 9.4032,-6.291zM56.6406,291.108c36.3406,-183.272 117.1624,-216.5476 147.4994,-213.6782l1.506,-15.9289c-43.255,-4.0912 -127.9031,40.9231 -164.6998,226.4951z" fill="#ff2b2b" stroke="none" stroke-width="1" stroke-linecap="butt"></path><path d="M157.092,284.042c81.165,-170.488 66.035,-213.9406 48.324,-214.3561" fill="none" stroke="#ff2b2b" stroke-width="16" stroke-linecap="round"></path><path d="M41.9393,287.956c-0.8479,4.334 1.9804,8.539 6.3173,9.391c4.3368,0.853 8.54,-1.97 9.388,-6.305zM57.6446,291.042c33.7819,-172.685 109.3534,-203.5261 137.3234,-200.8222l1.524,-15.9231c-40.989,-3.9624 -120.3375,38.7603 -154.5527,213.6593z" fill="#ff2b2b" stroke="none" stroke-width="1" stroke-linecap="butt"></path><path d="M156.068,284.054c73.222,-159.023 57.223,-200.6793 40.07,-201.6298" fill="none" stroke="#ff2b2b" stroke-width="16" stroke-linecap="round"></path><g fill-opacity="0.67059" fill="#848492" stroke="none" stroke-width="1" stroke-linecap="butt" style="mix-blend-mode: color-burn"><path d="M38,424.12c-0.64,0 -1.1733,-0.213 -1.6,-0.64c-1.28,-0.96 -2.3467,-2.08 -3.2,-3.36c-0.8533,-1.173 -1.28,-2.827 -1.28,-4.96c0,-1.707 0.3733,-3.787 1.12,-6.24c0.64,-2.56 1.76,-5.653 3.36,-9.28c2.0267,-4.587 3.68,-8.267 4.96,-11.04c1.3867,-2.88 2.7733,-5.44 4.16,-7.68c1.3867,-2.24 3.2,-4.747 5.44,-7.52c2.24,-2.88 5.28,-6.56 9.12,-11.04c0.5333,-0.64 1.3867,-1.493 2.56,-2.56c1.28,-1.173 2.5067,-2.293 3.68,-3.36c1.28,-1.173 2.1867,-2.08 2.72,-2.72c0.5333,-0.533 0.8,-0.907 0.8,-1.12v-0.48c0,-0.32 0.32,-0.853 0.96,-1.6c3.6267,-3.733 7.04,-7.413 10.24,-11.04c3.2,-3.627 6.3467,-6.613 9.44,-8.96c3.0933,-2.453 6.2933,-3.68 9.6,-3.68c0.427,0 0.8,0.053 1.12,0.16c0.427,0 0.853,0.053 1.28,0.16c1.173,0.107 2.133,0.267 2.88,0.48c0.747,0.107 1.12,0.533 1.12,1.28c0,0.533 -0.427,1.653 -1.28,3.36c-2.027,3.413 -3.627,7.893 -4.8,13.44c-1.0667,5.44 -1.8667,11.2 -2.4,17.28c-0.5333,6.08 -0.8533,11.84 -0.96,17.28c-0.1067,5.333 -0.16,9.653 -0.16,12.96v1.92c0,0.853 0.0533,1.387 0.16,1.6c0.1067,0.213 0.3733,0.587 0.8,1.12h0.16c0.1067,0.427 0.48,1.173 1.12,2.24c0.7467,0.96 1.067,1.333 0.96,1.12c0,0 0.747,-1.387 2.24,-4.16c1.6,-2.88 3.787,-6.613 6.56,-11.2c2.88,-4.693 6.24,-9.76 10.08,-15.2c3.84,-5.547 8.107,-10.987 12.8,-16.32c2.987,-3.413 5.867,-7.147 8.64,-11.2c2.88,-4.053 5.76,-8.053 8.64,-12c2.88,-4.053 5.867,-7.68 8.96,-10.88c0.64,-0.64 1.44,-1.547 2.4,-2.72c0.96,-1.28 1.867,-2.453 2.72,-3.52c0.96,-1.173 1.6,-2.027 1.92,-2.56c0.32,-0.64 0.16,-0.64 -0.48,0c0.853,-1.173 1.387,-1.92 1.6,-2.24c0.213,-0.32 1.013,-1.12 2.4,-2.4c1.173,-0.96 2.613,-1.44 4.32,-1.44c1.28,0 2.453,0.32 3.52,0.96c1.173,0.64 1.76,1.547 1.76,2.72c0,0.96 -0.373,1.867 -1.12,2.72c-0.533,0.747 -1.227,1.44 -2.08,2.08c-0.853,0.533 -1.493,1.227 -1.92,2.08c-0.533,0.747 -1.6,1.76 -3.2,3.04c-1.493,1.28 -2.507,2.187 -3.04,2.72c-1.387,1.707 -3.093,3.68 -5.12,5.92c-2.027,2.24 -4.053,4.427 -6.08,6.56c-2.027,2.027 -3.68,3.733 -4.96,5.12c-1.28,1.28 -1.92,1.867 -1.92,1.76l-5.76,8.16c-5.867,6.827 -10.56,12.533 -14.08,17.12c-3.52,4.587 -6.187,8.427 -8,11.52c-1.813,3.093 -3.147,5.707 -4,7.84c-0.747,2.027 -1.387,3.893 -1.92,5.6c-0.427,1.6 -1.067,3.307 -1.92,5.12c-0.213,0.427 -0.853,1.6 -1.92,3.52c-1.067,1.813 -2.187,3.627 -3.36,5.44c-1.067,1.813 -1.867,2.88 -2.4,3.2c-0.427,0.32 -0.907,0.48 -1.44,0.48c-0.32,0 -0.693,-0.053 -1.12,-0.16c-0.32,-0.107 -0.747,-0.16 -1.28,-0.16c-0.64,0 -1.12,0.107 -1.44,0.32c0,0 -0.64,0.213 -1.92,0.64c-1.1733,0.427 -2.4533,0.64 -3.84,0.64c-1.0667,0 -1.9733,-0.267 -2.72,-0.8c-0.7467,-0.853 -1.44,-2.133 -2.08,-3.84c-0.5333,-1.813 -0.96,-3.573 -1.28,-5.28c-0.2133,-1.813 -0.32,-3.093 -0.32,-3.84c0.4267,-5.013 0.6933,-8.48 0.8,-10.4c0.2133,-1.92 0.32,-3.413 0.32,-4.48c0,-1.173 -0.2133,-3.307 -0.64,-6.4c-0.1067,-0.853 -0.1067,-2.56 0,-5.12c0.1067,-2.56 0.2667,-5.387 0.48,-8.48c0.32,-3.2 0.64,-6.08 0.96,-8.64c0.32,-2.56 0.64,-4.213 0.96,-4.96c0.1067,-0.107 0.16,-0.32 0.16,-0.64c0,-0.533 -0.16,-1.013 -0.48,-1.44c-0.2133,-0.533 -0.4267,-0.853 -0.64,-0.96c-0.8533,0.427 -2.56,1.813 -5.12,4.16c-2.4533,2.24 -5.44,5.173 -8.96,8.8c-3.4133,3.627 -7.04,7.733 -10.88,12.32c-0.64,0.96 -1.4933,1.867 -2.56,2.72c-0.96,0.747 -1.8133,1.6 -2.56,2.56c-2.6667,3.307 -4.8,5.92 -6.4,7.84c-1.6,1.813 -2.9333,3.307 -4,4.48c-1.0667,1.173 -2.0267,2.4 -2.88,3.68c-0.8533,1.28 -1.8667,2.987 -3.04,5.12c-1.0667,2.133 -2.5067,5.12 -4.32,8.96c-0.32,0.64 -0.48,1.227 -0.48,1.76c0,0.853 0.16,1.707 0.48,2.56c0.32,0.853 0.4267,1.813 0.32,2.88c-0.1067,0.96 0,2.347 0.32,4.16c0.32,1.813 0.48,3.147 0.48,4v0.32c0,1.067 -0.2667,1.76 -0.8,2.08c-0.4267,0.427 -0.9067,0.64 -1.44,0.64zM154.245,415.16c-0.32,0 -1.013,-0.213 -2.08,-0.64c-1.067,-0.32 -2.187,-0.64 -3.36,-0.96c-1.173,-0.32 -2.027,-0.48 -2.56,-0.48h-0.16c-2.027,0 -3.573,-0.8 -4.64,-2.4c-0.96,-1.707 -1.6,-3.253 -1.92,-4.64c-0.107,-0.533 -0.213,-1.067 -0.32,-1.6c0,-0.64 0,-1.28 0,-1.92c0,-3.52 0.853,-7.52 2.56,-12c1.707,-4.48 4,-9.12 6.88,-13.92c2.987,-4.8 6.347,-9.28 10.08,-13.44c3.84,-4.373 7.733,-7.787 11.68,-10.24c3.947,-2.453 7.52,-3.84 10.72,-4.16c1.707,0 3.467,0.48 5.28,1.44c1.813,0.96 3.093,1.44 3.84,1.44h0.16c2.24,0 3.733,0.907 4.48,2.72c0.747,1.813 1.12,3.627 1.12,5.44c0,1.067 -0.213,2.187 -0.64,3.36c-0.427,1.173 -0.8,2.133 -1.12,2.88c-0.213,0.747 -0.213,1.013 0,0.8l0.16,-0.16c-1.173,2.133 -2.507,4.32 -4,6.56c-1.387,2.133 -3.68,4.96 -6.88,8.48c-1.28,1.387 -3.04,2.773 -5.28,4.16c-2.133,1.28 -4.213,2.453 -6.24,3.52c-2.027,1.067 -3.467,1.813 -4.32,2.24c-0.853,0.427 -1.973,0.64 -3.36,0.64c-1.387,0 -2.933,-0.16 -4.64,-0.48c-1.6,-0.32 -2.987,-0.48 -4.16,-0.48c-0.64,0 -1.227,0.053 -1.76,0.16c-0.533,0.107 -0.907,0.427 -1.12,0.96c-1.707,2.773 -2.56,5.547 -2.56,8.32c0,1.707 0.373,3.147 1.12,4.32c0.853,1.067 2.24,1.6 4.16,1.6c0.64,0 1.333,-0.053 2.08,-0.16c0.747,-0.107 1.493,-0.32 2.24,-0.64c1.813,-0.32 3.093,-0.48 3.84,-0.48c0.747,0 1.547,-0.107 2.4,-0.32c0.96,-0.213 2.507,-0.747 4.64,-1.6c2.347,-0.96 4.107,-1.653 5.28,-2.08c1.28,-0.427 2.24,-0.8 2.88,-1.12c0.747,-0.32 1.493,-0.693 2.24,-1.12c0.747,-0.427 1.92,-1.067 3.52,-1.92c1.173,-0.64 1.813,-0.96 1.92,-0.96c0.213,0 0.533,-0.107 0.96,-0.32c0.427,-0.32 1.547,-1.067 3.36,-2.24c1.92,-1.28 3.413,-1.92 4.48,-1.92c0.747,0 1.12,0.267 1.12,0.8c0,0.427 -0.373,1.067 -1.12,1.92c-0.64,0.853 -1.813,1.867 -3.52,3.04c-1.813,1.28 -3.893,2.773 -6.24,4.48c-2.24,1.707 -4.32,3.04 -6.24,4c-0.64,0.107 -1.227,0.373 -1.76,0.8c-0.427,0.32 -1.067,0.587 -1.92,0.8l-8.96,3.84l0.16,-0.16c0.32,-0.32 -0.053,-0.32 -1.12,0c-0.96,0.32 -2.24,0.8 -3.84,1.44c-1.493,0.64 -2.987,1.173 -4.48,1.6c-1.387,0.533 -2.4,0.8 -3.04,0.8zM160.485,387.64c0.427,0 0.853,0 1.28,0c0.427,-0.107 0.853,-0.213 1.28,-0.32c0.747,-0.64 1.44,-1.12 2.08,-1.44c0.64,-0.32 1.493,-0.853 2.56,-1.6c1.067,-0.747 2.56,-2.08 4.48,-4c1.6,-1.6 2.987,-2.72 4.16,-3.36c1.173,-0.747 2.133,-1.547 2.88,-2.4c2.24,-3.093 3.413,-5.44 3.52,-7.04c0.213,-1.6 0.32,-3.093 0.32,-4.48c-1.28,-1.707 -2.453,-2.56 -3.52,-2.56c-0.64,0 -1.6,0.267 -2.88,0.8c-1.813,0.747 -3.307,1.44 -4.48,2.08c-1.067,0.64 -2.667,2.027 -4.8,4.16c-2.453,2.56 -4.693,5.067 -6.72,7.52c-2.027,2.347 -3.627,4.747 -4.8,7.2c-0.107,0.427 -0.267,0.853 -0.48,1.28c-0.107,0.32 -0.16,0.587 -0.16,0.8c0,1.173 0.533,2.027 1.6,2.56c1.067,0.533 2.293,0.8 3.68,0.8zM211.122,412.92c-1.919,0 -3.573,-0.64 -4.959,-1.92c-1.387,-1.28 -2.08,-3.307 -2.08,-6.08c0,-3.413 0.693,-7.733 2.08,-12.96c1.386,-5.227 2.986,-10.187 4.8,-14.88c1.173,-2.88 2.186,-5.28 3.04,-7.2c0.853,-2.027 1.653,-3.893 2.4,-5.6c0.533,-1.28 0.746,-2.24 0.64,-2.88c0,-0.64 0,-1.333 0,-2.08c0,-1.28 0.48,-2.187 1.44,-2.72c0.96,-0.533 1.866,-0.907 2.72,-1.12c2.026,-0.747 3.946,-1.44 5.76,-2.08c1.92,-0.747 3.573,-1.12 4.96,-1.12c1.28,0 2.453,0.533 3.52,1.6l0.16,0.16c0.32,0.32 0.48,0.693 0.48,1.12c0.106,0.427 0.16,0.8 0.16,1.12c0,0.96 -0.534,2.08 -1.6,3.36c-1.067,1.28 -2.72,3.36 -4.96,6.24c-2.667,3.307 -4.8,6.347 -6.4,9.12c-1.6,2.667 -2.934,5.173 -4,7.52c-1.387,3.2 -2.347,6.027 -2.88,8.48c-0.534,2.453 -0.8,4.693 -0.8,6.72c0,0.64 0,1.547 0,2.72c0.106,1.067 0.16,1.333 0.16,0.8v-0.16c0.32,1.067 0.853,1.6 1.6,1.6h0.16c0.213,0 0.426,0.053 0.64,0.16c0.213,0 0.586,-0.053 1.12,-0.16c1.706,-0.533 3.626,-1.6 5.76,-3.2c2.133,-1.707 4.266,-3.52 6.4,-5.44c2.133,-1.92 3.946,-3.573 5.44,-4.96c0.32,-0.32 0.693,-0.64 1.12,-0.96c0.533,-0.32 1.013,-0.693 1.44,-1.12c0.32,-0.32 0.533,-0.693 0.64,-1.12c0.213,-0.427 0.533,-0.853 0.96,-1.28c3.52,-3.307 6.773,-6.773 9.76,-10.4c2.986,-3.627 5.493,-6.88 7.52,-9.76c2.133,-2.987 3.68,-4.907 4.64,-5.76c1.6,-1.387 3.253,-2.08 4.96,-2.08c2.773,0 5.013,1.28 6.72,3.84l-2.08,5.28c-0.32,0.64 -0.907,1.92 -1.76,3.84c-0.854,1.813 -1.814,3.893 -2.88,6.24c-0.96,2.347 -1.92,4.64 -2.88,6.88c-0.96,2.133 -1.654,3.947 -2.08,5.44c-0.32,1.067 -0.48,1.867 -0.48,2.4c0,0.427 -0.214,1.067 -0.64,1.92v-0.16l-0.32,6.24c0,0 0.053,0.373 0.16,1.12c0.213,0.64 0.426,1.333 0.64,2.08c0.32,0.64 0.64,0.96 0.96,0.96c0.213,0 0.853,-0.213 1.92,-0.64c1.173,-0.427 1.973,-0.853 2.4,-1.28h0.16c0.213,0 0.693,-0.107 1.44,-0.32c0.746,-0.213 1.173,-0.373 1.28,-0.48l0.16,-0.16c1.493,-0.853 3.146,-1.76 4.96,-2.72c1.813,-1.067 4.32,-2.667 7.52,-4.8c2.666,-1.92 5.12,-4.213 7.36,-6.88c2.24,-2.773 4.32,-5.387 6.24,-7.84c1.92,-2.56 3.68,-4.48 5.28,-5.76c0.213,-0.107 0.586,-0.853 1.12,-2.24c0.64,-1.493 1.12,-2.4 1.44,-2.72v-0.16c0.32,0 0.586,-0.693 0.8,-2.08c0.32,-1.387 0.586,-2.293 0.8,-2.72l-0.16,0.16c0.426,-0.64 0.693,-1.013 0.8,-1.12c0.106,-0.107 0.213,-0.16 0.32,-0.16c0.106,0 0.16,-0.107 0.16,-0.32c0,-0.213 0.16,-1.28 0.48,-3.2c0,-0.32 0.106,-1.12 0.32,-2.4c0.213,-1.387 0.266,-2.133 0.16,-2.24c0,0 -0.054,-0.533 -0.16,-1.6c0,-1.067 0.053,-2.24 0.16,-3.52c0.106,-1.387 0.32,-2.56 0.64,-3.52c0.32,-1.067 0.8,-1.547 1.44,-1.44c2.133,0.747 3.413,2.187 3.84,4.32c0.533,2.133 0.8,4.267 0.8,6.4c0,1.067 -0.214,2.613 -0.64,4.64c-0.32,2.027 -1.067,4.747 -2.24,8.16c-0.214,0.747 -0.534,1.707 -0.96,2.88c-0.427,1.173 -1.174,2.507 -2.24,4c-0.534,0.747 -1.067,1.547 -1.6,2.4c-0.427,0.747 -1.174,1.493 -2.24,2.24c-0.534,0.32 -1.334,1.28 -2.4,2.88c-0.96,1.493 -1.707,2.507 -2.24,3.04c-3.307,2.773 -6.24,5.333 -8.8,7.68c-2.56,2.347 -5.707,5.333 -9.44,8.96c-0.32,0.32 -1.227,0.907 -2.72,1.76c-1.387,0.853 -2.72,1.707 -4,2.56c-1.28,0.747 -2.027,1.28 -2.24,1.6c0,0 -0.64,0.267 -1.92,0.8c-1.28,0.533 -2.774,1.12 -4.48,1.76c-1.707,0.64 -3.254,1.28 -4.64,1.92c-1.387,0.533 -2.187,0.907 -2.4,1.12c-0.854,0.427 -1.92,0.64 -3.2,0.64c-1.387,0 -2.4,-0.213 -3.04,-0.64v0.16c-0.64,-0.427 -1.067,-0.907 -1.28,-1.44c-0.214,-0.64 -0.427,-1.067 -0.64,-1.28c-1.174,-1.493 -1.76,-3.787 -1.76,-6.88c0,-3.307 0.48,-6.613 1.44,-9.92c0.853,-3.2 1.28,-5.76 1.28,-7.68c0.106,-1.92 0.373,-3.787 0.8,-5.6c-1.387,1.387 -2.827,2.88 -4.32,4.48c-1.387,1.493 -3.094,3.2 -5.12,5.12v0.16c-0.427,0.107 -0.907,0.32 -1.44,0.64c-0.534,0.32 -0.907,0.533 -1.12,0.64c-0.427,0.427 -1.067,1.12 -1.92,2.08c-0.747,0.96 -1.28,1.653 -1.6,2.08c-2.987,2.667 -5.654,5.12 -8,7.36c-2.347,2.133 -5.014,4.107 -8,5.92v-0.16c-0.107,0.107 -0.214,0.267 -0.32,0.48c0,0.213 -0.054,0.427 -0.16,0.64c0,0.213 -0.054,0.32 -0.16,0.32c-0.427,0.107 -0.854,0.16 -1.28,0.16c-0.427,0 -0.8,0.107 -1.12,0.32c-0.64,0.213 -1.28,0.64 -1.92,1.28c-0.64,0.64 -1.28,1.173 -1.92,1.6c-1.387,0.533 -2.667,0.8 -3.841,0.8zM345.075,339.8v56.64h-11.52v-45.44h-20.32v-11.2zM345.075,391.64c7.52,11.84 21.6,17.28 40.64,17.92c17.76,0.8 54.72,0.32 74.08,-0.96c-1.44,2.72 -3.36,8.32 -3.84,11.84c-18.08,0.8 -52.32,1.12 -70.24,0.32c-21.12,-0.8 -35.68,-6.4 -45.6,-19.04c-7.04,6.88 -14.4,13.76 -22.4,20.8l-6.24,-11.68c7.04,-5.12 15.68,-12.32 23.2,-19.2zM314.675,287.32l9.12,-6.56c9.92,7.2 21.12,18.24 26.08,26.08l-9.92,7.52c-4.48,-8 -15.52,-19.2 -25.28,-27.04zM416.435,278.2l12.96,2.88c-4.64,10.24 -10.4,21.92 -14.88,29.44l-9.92,-2.88c4.32,-8.16 9.28,-20.64 11.84,-29.44zM378.355,301.72h75.2v10.4h-75.2v76.16h-11.68v-77.44l8.96,-9.12zM372.915,328.92h76.64v10.08h-76.64zM372.915,355.8h76.32v10.24h-76.32zM366.675,383.48h89.6v10.4h-89.6zM406.355,306.52h11.52v80.96h-11.52zM380.755,277.08l11.84,3.36c-9.28,22.72 -24.32,43.84 -40.16,57.44c-1.92,-2.4 -6.4,-7.04 -9.12,-9.12c15.52,-12.32 29.28,-31.36 37.44,-51.68zM462.515,420.12c-1.707,0 -3.147,-0.107 -4.32,-0.32c-1.173,-0.213 -1.707,-0.693 -1.6,-1.44c-0.213,0 -0.533,-0.213 -0.96,-0.64l-0.16,-0.32c0,-0.853 0.267,-1.547 0.8,-2.08l0.16,-0.16c0.107,-0.107 0.267,-0.16 0.48,-0.16c0.747,0 1.6,0.107 2.56,0.32c0.96,0.213 1.653,0.267 2.08,0.16c4.587,-1.387 8.747,-3.147 12.48,-5.28c3.84,-2.133 7.093,-4.373 9.76,-6.72c1.067,-0.853 2.027,-1.76 2.88,-2.72c0.96,-0.96 1.813,-1.867 2.56,-2.72c0.213,-0.32 0.533,-0.533 0.96,-0.64c0.533,-0.213 0.853,-0.373 0.96,-0.48l0.16,-0.16c0,-0.213 -0.053,-0.373 -0.16,-0.48c0,-0.213 0.107,-0.533 0.32,-0.96c2.133,-2.987 3.2,-5.28 3.2,-6.88c0,-0.96 -0.267,-1.547 -0.8,-1.76c-1.173,-1.067 -2.827,-1.92 -4.96,-2.56c-2.027,-0.64 -4.053,-1.173 -6.08,-1.6c-2.027,-0.533 -3.573,-1.013 -4.64,-1.44c-1.92,-0.853 -2.88,-2.293 -2.88,-4.32c0,-2.027 0.8,-4.32 2.4,-6.88c1.707,-2.667 4.053,-5.333 7.04,-8c4.8,-4.053 9.867,-7.307 15.2,-9.76c5.333,-2.56 10.027,-3.84 14.08,-3.84c2.133,0 4,0.427 5.6,1.28c1.6,0.853 2.72,2.24 3.36,4.16c0.32,0.96 0.48,1.867 0.48,2.72c0,1.387 -0.373,2.613 -1.12,3.68c-0.64,0.96 -1.44,1.44 -2.4,1.44c-0.213,0 -0.64,0.053 -1.28,0.16c-0.533,0.107 -1.013,0.107 -1.44,0c-0.427,-0.213 -0.853,-0.587 -1.28,-1.12c-0.427,-0.533 -0.747,-0.8 -0.96,-0.8h-0.16c-0.427,-0.213 -0.747,-0.427 -0.96,-0.64c-0.107,-0.213 -0.427,-0.32 -0.96,-0.32h-0.64l-3.2,-0.16c-1.6,0 -3.413,0.32 -5.44,0.96c-2.027,0.64 -4.427,1.867 -7.2,3.68v-0.16c-0.96,0.747 -1.973,1.707 -3.04,2.88c-1.067,1.067 -2.08,2.187 -3.04,3.36c-0.64,0.64 -1.387,1.28 -2.24,1.92c-0.747,0.64 -1.227,1.227 -1.44,1.76c-0.427,0.853 -0.64,1.6 -0.64,2.24c0,0.64 0.267,1.173 0.8,1.6c1.707,0.747 4.053,1.6 7.04,2.56c2.987,0.853 6.08,2.347 9.28,4.48c0.64,0.427 1.28,1.12 1.92,2.08c0.747,0.853 1.12,1.973 1.12,3.36c0,1.067 -0.213,2.08 -0.64,3.04c-0.32,0.533 -0.8,1.173 -1.44,1.92c-0.64,0.64 -1.067,1.227 -1.28,1.76l-0.16,0.16c-1.92,1.92 -4.373,4.427 -7.36,7.52c-2.987,2.987 -7.2,6.133 -12.64,9.44c-4.16,2.56 -8.053,4.32 -11.68,5.28c-3.627,1.067 -6.453,1.6 -8.48,1.6zM527.354,412.12c-0.96,0 -1.6,-0.427 -1.92,-1.28c-0.32,-1.067 -0.8,-2.133 -1.44,-3.2c-0.534,-1.173 -0.64,-2.773 -0.32,-4.8c0,0 0.213,-0.587 0.64,-1.76c0.426,-1.28 0.853,-2.453 1.28,-3.52c0.533,-1.173 1.066,-2.4 1.6,-3.68c0.533,-1.28 1.12,-3.093 1.76,-5.44c0.426,-1.067 0.96,-2.72 1.6,-4.96c0.746,-2.24 1.653,-4.267 2.72,-6.08v0.16c1.6,-2.88 3.253,-5.707 4.96,-8.48c1.813,-2.88 3.626,-5.707 5.44,-8.48c-0.534,0.427 -1.28,0.747 -2.24,0.96c-1.174,0.427 -2.454,0.907 -3.84,1.44c-1.387,0.427 -2.56,0.64 -3.52,0.64c-1.387,0 -2.347,-0.533 -2.88,-1.6c-0.427,-1.067 -0.64,-1.6 -0.64,-1.6v-0.16c0,-1.173 0,-2.4 0,-3.68c0.106,-1.387 0.96,-2.56 2.56,-3.52h0.16c0.213,0 0.533,0.053 0.96,0.16c0.533,0.107 0.853,0.16 0.96,0.16c0.426,-0.213 0.96,-0.533 1.6,-0.96c0.64,-0.427 1.333,-0.64 2.08,-0.64h0.16c1.813,0 3.733,-0.053 5.76,-0.16c2.026,-0.107 3.733,-0.32 5.12,-0.64c0.64,-0.853 1.226,-1.653 1.76,-2.4c0.533,-0.853 0.746,-1.387 0.64,-1.6c0.106,-0.533 0.48,-1.28 1.12,-2.24c0.746,-1.067 1.28,-1.813 1.6,-2.24c0.213,-0.533 0.64,-1.12 1.28,-1.76c0.746,-0.747 1.12,-1.227 1.12,-1.44v-0.16c0.106,-0.213 0.16,-0.587 0.16,-1.12v-1.28c0,-0.533 0.053,-1.067 0.16,-1.6c0.213,-0.64 0.533,-1.173 0.96,-1.6c0.746,-0.747 1.333,-1.653 1.76,-2.72c0.533,-1.067 1.493,-2.027 2.88,-2.88c0.96,-0.64 1.866,-0.96 2.72,-0.96c1.493,0 2.613,0.64 3.36,1.92c0.746,1.173 1.333,2.133 1.76,2.88c0.106,0.427 0.64,0.853 1.6,1.28c1.066,0.32 1.6,0.96 1.6,1.92c0,0.853 -0.64,1.867 -1.92,3.04c-0.427,0.533 -1.174,1.387 -2.24,2.56c-1.067,1.067 -2.027,2.027 -2.88,2.88c-0.747,0.747 -2.08,2.507 -4,5.28c1.706,-0.107 3.466,-0.373 5.28,-0.8c1.813,-0.427 3.68,-0.64 5.6,-0.64c0.533,0.107 1.44,0 2.72,-0.32c1.28,-0.427 2.453,-0.64 3.52,-0.64c0.426,0 0.746,0.32 0.96,0.96c0.32,0.533 0.533,0.96 0.64,1.28c-0.427,0.64 -1.334,1.227 -2.72,1.76c-1.28,0.533 -2.24,0.853 -2.88,0.96c-0.427,0 -1.547,0.16 -3.36,0.48c-1.814,0.32 -3.68,0.693 -5.6,1.12c-1.814,0.32 -3.094,0.48 -3.84,0.48c-0.64,-0.107 -1.28,0.267 -1.92,1.12c-0.64,0.747 -1.387,1.173 -2.24,1.28c-0.64,0.853 -1.334,1.493 -2.08,1.92c-0.64,0.32 -1.227,0.853 -1.76,1.6c-1.387,2.027 -2.56,3.787 -3.52,5.28c-0.96,1.387 -1.654,2.347 -2.08,2.88c-0.534,0.64 -1.28,1.653 -2.24,3.04c-0.854,1.28 -1.76,2.613 -2.72,4c-0.96,1.387 -1.76,2.4 -2.4,3.04c-0.427,0.64 -1.12,1.707 -2.08,3.2c-0.96,1.387 -1.76,2.4 -2.4,3.04c-0.534,0.747 -0.96,1.387 -1.28,1.92c-0.214,0.533 -0.64,1.387 -1.28,2.56v-0.16c-0.534,0.96 -1.12,2.24 -1.76,3.84c-0.64,1.493 -1.067,2.933 -1.28,4.32c-0.107,0.533 -0.214,1.12 -0.32,1.76c0,0.64 0,1.227 0,1.76c0,1.387 0.053,2.667 0.16,3.84c0.213,1.067 0.32,2.027 0.32,2.88c0,1.493 -0.64,2.827 -1.92,4c-1.174,1.067 -2.347,1.6 -3.52,1.6zM582.234,348.44c0,0 -0.054,0.053 -0.16,0.16l0.16,-0.32zM571.149,410.84c-1.707,0 -3.04,-0.267 -4,-0.8c-0.96,-0.64 -1.867,-1.28 -2.72,-1.92c-1.92,-1.6 -2.88,-4.533 -2.88,-8.8c0,-3.093 0.586,-6.613 1.76,-10.56c1.173,-4.053 3.093,-8.267 5.76,-12.64v0.16c1.173,-2.133 2.346,-4.267 3.52,-6.4c1.28,-2.133 2.613,-4.213 4,-6.24c0.426,-0.427 0.853,-0.693 1.28,-0.8c0.426,-0.213 0.746,-0.427 0.96,-0.64c0,-0.427 0.106,-1.013 0.32,-1.76c0.32,-0.853 0.693,-1.44 1.12,-1.76c1.92,-2.56 4.106,-4.48 6.56,-5.76c2.453,-1.28 4.373,-2.347 5.76,-3.2h-0.16c0.64,-0.32 1.386,-0.48 2.24,-0.48c2.133,0 4.64,0.8 7.52,2.4c0.426,0 0.853,-0.053 1.28,-0.16c0.533,-0.213 1.066,-0.32 1.6,-0.32c1.066,0 2.133,0.373 3.2,1.12c1.173,0.747 1.653,1.92 1.44,3.52c-0.107,0.32 -0.16,0.587 -0.16,0.8c0,0.213 0,0.427 0,0.64c0,1.173 0.426,1.76 1.28,1.76c0.426,0 0.853,-0.053 1.28,-0.16c0.426,-0.107 0.853,-0.16 1.28,-0.16c1.173,0 2.826,-0.16 4.96,-0.48c2.133,-0.427 4.16,-0.8 6.08,-1.12c2.026,-0.427 3.413,-0.64 4.16,-0.64c0.426,0.32 0.64,0.693 0.64,1.12c0,0.427 -0.214,0.907 -0.64,1.44c-0.32,0.533 -0.694,0.907 -1.12,1.12c0,0 -0.694,0.213 -2.08,0.64c-1.28,0.32 -2.88,0.747 -4.8,1.28c-1.92,0.533 -3.84,1.067 -5.76,1.6c-1.814,0.427 -3.254,0.693 -4.32,0.8l-1.6,0.16c-0.107,1.28 -0.427,2.667 -0.96,4.16c-0.534,1.493 -1.12,3.147 -1.76,4.96c-0.214,0.533 -0.374,1.227 -0.48,2.08c-0.107,0.747 -0.32,1.547 -0.64,2.4c-0.747,1.28 -1.6,2.56 -2.56,3.84c-0.96,1.28 -1.867,2.613 -2.72,4c-0.64,1.067 -1.334,2.24 -2.08,3.52c-0.64,1.173 -1.44,2.4 -2.4,3.68c-2.134,2.773 -4.64,5.547 -7.52,8.32c-2.774,2.667 -5.654,4.907 -8.64,6.72c-2.88,1.707 -5.547,2.56 -8,2.56zM572.589,405.56c2.133,0 5.066,-1.493 8.8,-4.48c3.84,-3.093 7.413,-7.04 10.72,-11.84h-0.16c0.853,-1.28 1.706,-2.773 2.56,-4.48c0.96,-1.707 1.706,-3.147 2.24,-4.32c0,0 0.266,-0.32 0.8,-0.96c0.64,-0.64 1.28,-1.333 1.92,-2.08c0.64,-0.853 1.013,-1.493 1.12,-1.92c0.106,-0.213 0.16,-0.48 0.16,-0.8c0,-0.213 -0.054,-0.373 -0.16,-0.48c0,-0.213 0,-0.533 0,-0.96v-0.16c0.64,-1.6 1.173,-3.04 1.6,-4.32c0.426,-1.28 0.693,-2.4 0.8,-3.36c-0.747,0 -1.92,-0.053 -3.52,-0.16c-1.6,-0.107 -2.934,-0.213 -4,-0.32c-0.96,-0.107 -0.96,-0.16 0,-0.16h0.48c0,-0.107 -0.48,-0.32 -1.44,-0.64c-0.96,-0.32 -1.707,-0.587 -2.24,-0.8c-0.32,0.107 -0.64,0.16 -0.96,0.16c-0.534,0 -0.96,-0.107 -1.28,-0.32c-0.214,-0.213 -0.48,-0.16 -0.8,0.16c-0.427,0.427 -0.694,0.96 -0.8,1.6c-0.107,0.64 -0.534,1.333 -1.28,2.08l-0.16,0.16c0,-0.107 -0.267,0 -0.8,0.32c-0.534,0.32 -0.747,0.48 -0.64,0.48l-0.16,0.32c-0.214,0.107 -0.374,0.427 -0.48,0.96c0,0.427 -0.16,0.907 -0.48,1.44c-1.067,1.707 -2.24,3.52 -3.52,5.44c-1.174,1.813 -2.294,3.573 -3.36,5.28v-0.16c-1.067,1.92 -2.134,4 -3.2,6.24c-1.067,2.24 -1.867,4.427 -2.4,6.56c0,0.533 -0.107,1.067 -0.32,1.6c-0.107,0.427 -0.16,0.8 -0.16,1.12v0.16c0,1.173 -0.214,2.187 -0.64,3.04c-0.427,0.853 -0.64,1.707 -0.64,2.56c0.32,0.747 0.426,1.333 0.32,1.76c-0.107,0.32 0.053,0.587 0.48,0.8c0.533,0.32 1.066,0.48 1.6,0.48zM627.924,413.4c-0.32,0 -1.014,-0.267 -2.08,-0.8c-0.96,-0.427 -1.974,-0.907 -3.04,-1.44c-0.96,-0.427 -1.707,-0.64 -2.24,-0.64h-0.16c-1.387,0 -2.4,-0.427 -3.04,-1.28c-0.534,-0.96 -0.907,-2.08 -1.12,-3.36c-0.214,-1.28 -0.427,-2.347 -0.64,-3.2c-0.32,-1.28 -0.48,-2.613 -0.48,-4c0,-4.8 1.6,-10.347 4.8,-16.64c3.306,-6.4 7.68,-12.693 13.12,-18.88c3.84,-4.373 7.733,-7.787 11.68,-10.24c3.946,-2.453 7.52,-3.84 10.72,-4.16c1.706,-0.213 3.466,0.213 5.28,1.28c1.813,1.067 3.093,1.6 3.84,1.6h0.16c2.986,0 5.013,1.013 6.08,3.04c1.066,1.92 1.6,3.787 1.6,5.6c0,1.6 -0.374,3.147 -1.12,4.64c-0.747,1.067 -1.92,1.6 -3.52,1.6c-2.027,0 -3.36,-0.587 -4,-1.76c-0.747,-1.707 -2.134,-3.04 -4.16,-4c-2.027,-0.96 -3.947,-1.44 -5.76,-1.44c-1.814,0 -3.787,0.8 -5.92,2.4c-2.027,1.6 -4.107,3.52 -6.24,5.76c-6.507,6.72 -11.04,13.013 -13.6,18.88c-2.454,5.76 -3.68,10.293 -3.68,13.6c0,0.427 0,0.853 0,1.28c0.106,0.32 0.16,0.64 0.16,0.96v0.16c0,0.747 0.693,1.547 2.08,2.4c1.386,0.747 2.933,1.013 4.64,0.8c2.88,-0.32 5.28,-0.8 7.2,-1.44c1.92,-0.64 4.373,-1.813 7.36,-3.52c0.106,0 0.64,-0.267 1.6,-0.8c0.96,-0.533 1.92,-1.067 2.88,-1.6c1.066,-0.64 1.653,-0.96 1.76,-0.96c1.173,-0.64 1.813,-0.96 1.92,-0.96c0.213,0 0.533,-0.107 0.96,-0.32c0.426,-0.32 1.546,-1.067 3.36,-2.24c1.92,-1.28 3.413,-1.92 4.48,-1.92c0.746,0 1.12,0.267 1.12,0.8c0,0.427 -0.374,1.067 -1.12,1.92c-0.64,0.853 -1.814,1.867 -3.52,3.04c-2.134,1.387 -3.894,2.453 -5.28,3.2c-1.28,0.747 -2.454,1.493 -3.52,2.24c-1.067,0.64 -2.24,1.6 -3.52,2.88l-0.16,0.16c-0.214,0 -0.8,0.213 -1.76,0.64c-0.854,0.427 -1.707,0.853 -2.56,1.28c-0.854,0.32 -1.334,0.533 -1.44,0.64c-0.427,0.32 -1.547,0.907 -3.36,1.76c-1.707,0.747 -3.52,1.44 -5.44,2.08c-1.92,0.64 -3.36,0.96 -4.32,0.96zM676.714,412.12c-0.747,0 -1.387,-0.053 -1.92,-0.16c-0.427,-0.107 -0.694,-0.16 -0.8,-0.16l-0.16,-0.16c-0.32,-0.32 -0.587,-0.587 -0.8,-0.8c-0.107,-0.213 -0.32,-0.427 -0.64,-0.64c-0.427,-0.32 -0.96,-0.693 -1.6,-1.12c-0.64,-0.533 -0.96,-1.653 -0.96,-3.36c0,-1.493 0.32,-3.627 0.96,-6.4c0.746,-2.88 2.133,-6.72 4.16,-11.52h0.16c1.493,-2.24 2.72,-4.533 3.68,-6.88c1.066,-2.453 2.133,-4.64 3.2,-6.56v0.32c0,-0.213 0.586,-1.227 1.76,-3.04c1.173,-1.92 2.56,-4.213 4.16,-6.88c1.706,-2.667 3.413,-5.333 5.12,-8c1.706,-2.667 3.146,-4.96 4.32,-6.88c1.28,-1.92 1.973,-2.987 2.08,-3.2v0.32c0.106,-0.533 0.533,-1.333 1.28,-2.4c0.746,-1.067 1.173,-1.653 1.28,-1.76h-0.16c1.066,-1.707 1.76,-2.987 2.08,-3.84c0.426,-0.96 0.853,-1.867 1.28,-2.72c0.533,-0.96 1.44,-2.24 2.72,-3.84c0.533,-0.853 1.44,-2.08 2.72,-3.68c1.386,-1.6 2.4,-2.773 3.04,-3.52c0.533,-0.533 1.173,-1.44 1.92,-2.72c0.746,-1.387 1.546,-2.293 2.4,-2.72c1.493,-0.747 3.306,-1.44 5.44,-2.08c2.133,-0.64 4.053,-0.96 5.76,-0.96c2.666,0 4.16,0.907 4.48,2.72c0,3.627 -2.187,7.52 -6.56,11.68c-1.067,1.067 -2.454,2.187 -4.16,3.36c-1.707,1.173 -2.987,2.347 -3.84,3.52h0.16c-1.174,1.707 -2.72,3.307 -4.64,4.8c-1.814,1.493 -3.2,2.827 -4.16,4c-0.747,1.067 -1.707,1.973 -2.88,2.72c-1.174,0.64 -2.08,1.387 -2.72,2.24c-4.8,6.507 -8.534,12.053 -11.2,16.64c-2.667,4.48 -4.32,7.307 -4.96,8.48c-0.427,0.747 -1.014,1.92 -1.76,3.52c-0.64,1.493 -1.28,3.04 -1.92,4.64c-0.64,1.493 -1.12,2.613 -1.44,3.36c-0.534,1.707 -1.067,2.88 -1.6,3.52c-0.534,0.533 -0.907,1.28 -1.12,2.24c0.213,0 0.586,0.267 1.12,0.8c0.533,0.427 0.96,0.48 1.28,0.16l5.6,-4.16c1.493,-1.173 2.666,-2.24 3.52,-3.2c0.853,-0.96 2.56,-2.613 5.12,-4.96c0.32,-0.213 0.96,-0.747 1.92,-1.6c0.96,-0.853 1.973,-1.813 3.04,-2.88c0.853,-1.707 1.76,-3.413 2.72,-5.12c0.96,-1.813 2.133,-3.52 3.52,-5.12c3.093,-3.733 6.4,-6.613 9.92,-8.64c3.626,-2.133 6.933,-3.36 9.92,-3.68c1.6,0 3.306,0.053 5.12,0.16c1.92,0 3.413,0.213 4.48,0.64c1.493,0.747 2.453,1.6 2.88,2.56c0.426,0.96 0.64,1.867 0.64,2.72c0,1.173 -0.16,2.027 -0.48,2.56c-0.427,0.64 -0.96,1.227 -1.6,1.76c-0.64,0.533 -1.654,0.8 -3.04,0.8c-0.747,-0.213 -1.494,-0.693 -2.24,-1.44c-0.64,-0.747 -2.027,-1.12 -4.16,-1.12c-0.96,0.427 -1.867,0.907 -2.72,1.44c-0.747,0.427 -1.707,1.013 -2.88,1.76v0.16c-1.494,0.96 -2.827,1.867 -4,2.72c-1.067,0.853 -2.027,1.653 -2.88,2.4c-0.427,0.427 -1.174,0.96 -2.24,1.6c-0.96,0.64 -2.08,1.387 -3.36,2.24h0.16c-1.387,2.027 -2.347,4.107 -2.88,6.24c-0.534,2.027 -0.8,3.947 -0.8,5.76c0,2.88 0.48,5.44 1.44,7.68c1.066,2.133 2.186,3.733 3.36,4.8c0.64,0.427 1.546,1.013 2.72,1.76c1.28,0.747 2.773,1.12 4.48,1.12c2.88,0 5.226,-0.32 7.04,-0.96c1.813,-0.747 4.16,-1.813 7.04,-3.2h0.16c-0.107,-0.107 0.373,0 1.44,0.32c1.066,0.32 1.6,0.907 1.6,1.76c0,0.533 -0.534,1.333 -1.6,2.4l-0.16,0.16l-5.28,2.4c-0.427,0.32 -1.494,0.8 -3.2,1.44c-1.6,0.64 -3.254,1.227 -4.96,1.76c-1.707,0.533 -2.987,0.8 -3.84,0.8c-0.32,0 -1.014,-0.213 -2.08,-0.64c-1.067,-0.427 -2.187,-0.853 -3.36,-1.28c-1.067,-0.427 -1.92,-0.64 -2.56,-0.64c-1.494,-0.213 -2.56,-0.747 -3.2,-1.6c-0.64,-0.853 -1.12,-1.76 -1.44,-2.72c-0.32,-0.96 -0.8,-1.707 -1.44,-2.24c-3.094,-2.88 -4.64,-6.827 -4.64,-11.84c0,-0.64 0,-1.227 0,-1.76c0.106,-0.64 0.213,-1.28 0.32,-1.92c-0.854,0.747 -1.654,1.493 -2.4,2.24c-0.747,0.64 -1.227,1.067 -1.44,1.28l-1.76,1.12c-1.494,1.707 -2.827,3.36 -4,4.96c-1.174,1.493 -2.454,3.04 -3.84,4.64h-0.32c0,-0.107 -0.427,0.427 -1.28,1.6c-0.854,1.067 -1.28,1.6 -1.28,1.6c-0.214,0.32 -0.64,1.067 -1.28,2.24c-0.64,1.173 -1.334,2.347 -2.08,3.52c-0.64,1.067 -1.174,1.76 -1.6,2.08c-0.64,0.32 -1.44,0.48 -2.4,0.48z" style="mix-blend-mode: normal"></path></g></g></g></svg>