<svg width="998" height="455" viewBox="0 0 998 455" fill="none" xmlns="http://www.w3.org/2000/svg">
<path d="M263.055 275.753C258.741 276.706 256.016 280.976 256.969 285.29C257.922 289.604 262.192 292.329 266.506 291.376L263.055 275.753ZM266.506 291.376C379.79 266.353 539.977 242.977 653.37 253.528C681.649 256.16 706.717 260.878 727.279 268.056C747.895 275.253 763.43 284.731 773.321 296.514C783.012 308.06 787.737 322.34 785.919 340.441C784.073 358.836 775.423 381.417 757.663 408.839L771.093 417.537C789.607 388.951 799.644 363.909 801.839 342.04C804.064 319.877 798.187 301.253 785.576 286.227C773.164 271.44 754.696 260.681 732.552 252.95C710.354 245.201 683.904 240.301 654.852 237.597C538.919 226.81 376.76 250.637 263.055 275.753L266.506 291.376Z" fill="#FF2B2B"/>
<path d="M763.708 405.902C759.358 406.674 756.458 410.827 757.231 415.178C758.003 419.528 762.156 422.428 766.506 421.655L763.708 405.902ZM766.506 421.655C795.432 416.518 838.667 401.281 875.141 372.048C911.814 342.656 941.896 298.86 943.089 237.151L927.092 236.842C926.01 292.809 898.957 332.456 865.135 359.563C831.115 386.828 790.496 401.144 763.708 405.902L766.506 421.655Z" fill="#FF2B2B"/>
<path d="M900.003 262.635C897.826 266.479 899.178 271.361 903.023 273.538C906.868 275.715 911.749 274.363 913.926 270.518L900.003 262.635ZM913.926 270.518C917.615 264.004 923.629 254.645 929.623 247.658C932.669 244.109 935.332 241.621 937.364 240.321C939.754 238.792 938.945 240.247 937.094 239.199L944.977 225.276C938.696 221.719 932.371 224.52 928.74 226.844C924.75 229.397 920.887 233.27 917.48 237.24C910.571 245.293 903.979 255.612 900.003 262.635L913.926 270.518Z" fill="#FF2B2B"/>
<path d="M951.908 278.406C951.421 262.709 947.879 231.443 937.612 231.955" stroke="#FF2B2B" stroke-width="16" stroke-linecap="round"/>
<path d="M149.002 282.147C147.014 286.093 148.6 290.903 152.546 292.892C156.491 294.88 161.302 293.294 163.29 289.348L149.002 282.147ZM163.29 289.348C206.865 202.887 249.891 156.863 285.25 134.144C320.694 111.371 347.894 112.24 361.107 118.029L367.528 103.374C347.99 94.8131 315.071 95.9659 276.601 120.684C238.046 145.456 193.362 194.13 149.002 282.147L163.29 289.348Z" fill="#FF2B2B"/>
<path d="M270.364 288.765C267.215 291.863 262.15 291.822 259.051 288.673C255.952 285.523 255.994 280.458 259.143 277.359L270.364 288.765ZM259.143 277.359C317.935 219.517 345.907 179.492 357.334 153.387C363.049 140.333 364.365 131.348 363.84 125.654C363.332 120.148 361.214 118.134 359.927 117.408L367.786 103.471C374.587 107.306 378.89 114.625 379.772 124.184C380.636 133.555 378.311 145.367 371.991 159.804C359.351 188.679 329.683 230.404 270.364 288.765L259.143 277.359Z" fill="#FF2B2B"/>
<path d="M148.757 279.79C146.751 283.726 148.315 288.544 152.252 290.55C156.188 292.557 161.006 290.992 163.012 287.056L148.757 279.79ZM163.012 287.056C204.185 206.282 244.895 163.376 278.338 142.242C311.867 121.055 337.594 121.95 350.049 127.35L356.414 112.671C337.734 104.571 306.363 105.606 269.791 128.717C233.132 151.882 190.737 197.433 148.757 279.79L163.012 287.056Z" fill="#FF2B2B"/>
<path d="M270.433 288.696C267.322 291.833 262.257 291.853 259.12 288.742C255.983 285.63 255.963 280.565 259.074 277.428L270.433 288.696ZM259.074 277.428C312.57 223.499 337.576 185.878 347.484 161.214C352.433 148.896 353.4 140.339 352.738 134.849C352.093 129.494 349.994 127.364 348.667 126.57L356.888 112.843C363.301 116.683 367.514 123.735 368.623 132.935C369.715 141.999 367.878 153.37 362.331 167.178C351.249 194.764 324.504 234.187 270.433 288.696L259.074 277.428Z" fill="#FF2B2B"/>
<path d="M40.9462 287.996C40.0868 292.33 42.9035 296.54 47.2374 297.399C51.5713 298.259 55.7812 295.442 56.6406 291.108L40.9462 287.996ZM56.6406 291.108C92.9812 107.836 173.803 74.5604 204.14 77.4298L205.646 61.5009C162.391 57.4097 77.7429 102.424 40.9462 287.996L56.6406 291.108Z" fill="#FF2B2B"/>
<path d="M157.092 284.042C238.257 113.554 223.127 70.1014 205.416 69.6859" stroke="#FF2B2B" stroke-width="16" stroke-linecap="round"/>
<path d="M41.9393 287.956C41.0914 292.29 43.9197 296.495 48.2566 297.347C52.5934 298.2 56.7966 295.377 57.6446 291.042L41.9393 287.956ZM57.6446 291.042C91.4265 118.357 166.998 87.5159 194.968 90.2198L196.492 74.2967C155.503 70.3343 76.1545 113.057 41.9393 287.956L57.6446 291.042Z" fill="#FF2B2B"/>
<path d="M156.068 284.054C229.29 125.031 213.291 83.3747 196.138 82.4242" stroke="#FF2B2B" stroke-width="16" stroke-linecap="round"/>
<g style="mix-blend-mode:color-burn">
<path d="M38 424.12C37.36 424.12 36.8267 423.907 36.4 423.48C35.12 422.52 34.0533 421.4 33.2 420.12C32.3467 418.947 31.92 417.293 31.92 415.16C31.92 413.453 32.2933 411.373 33.04 408.92C33.68 406.36 34.8 403.267 36.4 399.64C38.4267 395.053 40.08 391.373 41.36 388.6C42.7467 385.72 44.1333 383.16 45.52 380.92C46.9067 378.68 48.72 376.173 50.96 373.4C53.2 370.52 56.24 366.84 60.08 362.36C60.6133 361.72 61.4667 360.867 62.64 359.8C63.92 358.627 65.1467 357.507 66.32 356.44C67.6 355.267 68.5067 354.36 69.04 353.72C69.5733 353.187 69.84 352.813 69.84 352.6V352.12C69.84 351.8 70.16 351.267 70.8 350.52C74.4267 346.787 77.84 343.107 81.04 339.48C84.24 335.853 87.3867 332.867 90.48 330.52C93.5733 328.067 96.7733 326.84 100.08 326.84C100.507 326.84 100.88 326.893 101.2 327C101.627 327 102.053 327.053 102.48 327.16C103.653 327.267 104.613 327.427 105.36 327.64C106.107 327.747 106.48 328.173 106.48 328.92C106.48 329.453 106.053 330.573 105.2 332.28C103.173 335.693 101.573 340.173 100.4 345.72C99.3333 351.16 98.5333 356.92 98 363C97.4667 369.08 97.1467 374.84 97.04 380.28C96.9333 385.613 96.88 389.933 96.88 393.24V395.16C96.88 396.013 96.9333 396.547 97.04 396.76C97.1467 396.973 97.4133 397.347 97.84 397.88H98C98.1067 398.307 98.48 399.053 99.12 400.12C99.8667 401.08 100.187 401.453 100.08 401.24C100.08 401.24 100.827 399.853 102.32 397.08C103.92 394.2 106.107 390.467 108.88 385.88C111.76 381.187 115.12 376.12 118.96 370.68C122.8 365.133 127.067 359.693 131.76 354.36C134.747 350.947 137.627 347.213 140.4 343.16C143.28 339.107 146.16 335.107 149.04 331.16C151.92 327.107 154.907 323.48 158 320.28C158.64 319.64 159.44 318.733 160.4 317.56C161.36 316.28 162.267 315.107 163.12 314.04C164.08 312.867 164.72 312.013 165.04 311.48C165.36 310.84 165.2 310.84 164.56 311.48C165.413 310.307 165.947 309.56 166.16 309.24C166.373 308.92 167.173 308.12 168.56 306.84C169.733 305.88 171.173 305.4 172.88 305.4C174.16 305.4 175.333 305.72 176.4 306.36C177.573 307 178.16 307.907 178.16 309.08C178.16 310.04 177.787 310.947 177.04 311.8C176.507 312.547 175.813 313.24 174.96 313.88C174.107 314.413 173.467 315.107 173.04 315.96C172.507 316.707 171.44 317.72 169.84 319C168.347 320.28 167.333 321.187 166.8 321.72C165.413 323.427 163.707 325.4 161.68 327.64C159.653 329.88 157.627 332.067 155.6 334.2C153.573 336.227 151.92 337.933 150.64 339.32C149.36 340.6 148.72 341.187 148.72 341.08L142.96 349.24C137.093 356.067 132.4 361.773 128.88 366.36C125.36 370.947 122.693 374.787 120.88 377.88C119.067 380.973 117.733 383.587 116.88 385.72C116.133 387.747 115.493 389.613 114.96 391.32C114.533 392.92 113.893 394.627 113.04 396.44C112.827 396.867 112.187 398.04 111.12 399.96C110.053 401.773 108.933 403.587 107.76 405.4C106.693 407.213 105.893 408.28 105.36 408.6C104.933 408.92 104.453 409.08 103.92 409.08C103.6 409.08 103.227 409.027 102.8 408.92C102.48 408.813 102.053 408.76 101.52 408.76C100.88 408.76 100.4 408.867 100.08 409.08C100.08 409.08 99.44 409.293 98.16 409.72C96.9867 410.147 95.7067 410.36 94.32 410.36C93.2533 410.36 92.3467 410.093 91.6 409.56C90.8533 408.707 90.16 407.427 89.52 405.72C88.9867 403.907 88.56 402.147 88.24 400.44C88.0267 398.627 87.92 397.347 87.92 396.6C88.3467 391.587 88.6133 388.12 88.72 386.2C88.9333 384.28 89.04 382.787 89.04 381.72C89.04 380.547 88.8267 378.413 88.4 375.32C88.2933 374.467 88.2933 372.76 88.4 370.2C88.5067 367.64 88.6667 364.813 88.88 361.72C89.2 358.52 89.52 355.64 89.84 353.08C90.16 350.52 90.48 348.867 90.8 348.12C90.9067 348.013 90.96 347.8 90.96 347.48C90.96 346.947 90.8 346.467 90.48 346.04C90.2667 345.507 90.0533 345.187 89.84 345.08C88.9867 345.507 87.28 346.893 84.72 349.24C82.2667 351.48 79.28 354.413 75.76 358.04C72.3467 361.667 68.72 365.773 64.88 370.36C64.24 371.32 63.3867 372.227 62.32 373.08C61.36 373.827 60.5067 374.68 59.76 375.64C57.0933 378.947 54.96 381.56 53.36 383.48C51.76 385.293 50.4267 386.787 49.36 387.96C48.2933 389.133 47.3333 390.36 46.48 391.64C45.6267 392.92 44.6133 394.627 43.44 396.76C42.3733 398.893 40.9333 401.88 39.12 405.72C38.8 406.36 38.64 406.947 38.64 407.48C38.64 408.333 38.8 409.187 39.12 410.04C39.44 410.893 39.5467 411.853 39.44 412.92C39.3333 413.88 39.44 415.267 39.76 417.08C40.08 418.893 40.24 420.227 40.24 421.08V421.4C40.24 422.467 39.9733 423.16 39.44 423.48C39.0133 423.907 38.5333 424.12 38 424.12ZM154.245 415.16C153.925 415.16 153.232 414.947 152.165 414.52C151.098 414.2 149.978 413.88 148.805 413.56C147.632 413.24 146.778 413.08 146.245 413.08H146.085C144.058 413.08 142.512 412.28 141.445 410.68C140.485 408.973 139.845 407.427 139.525 406.04C139.418 405.507 139.312 404.973 139.205 404.44C139.205 403.8 139.205 403.16 139.205 402.52C139.205 399 140.058 395 141.765 390.52C143.472 386.04 145.765 381.4 148.645 376.6C151.632 371.8 154.992 367.32 158.725 363.16C162.565 358.787 166.458 355.373 170.405 352.92C174.352 350.467 177.925 349.08 181.125 348.76C182.832 348.76 184.592 349.24 186.405 350.2C188.218 351.16 189.498 351.64 190.245 351.64H190.405C192.645 351.64 194.138 352.547 194.885 354.36C195.632 356.173 196.005 357.987 196.005 359.8C196.005 360.867 195.792 361.987 195.365 363.16C194.938 364.333 194.565 365.293 194.245 366.04C194.032 366.787 194.032 367.053 194.245 366.84L194.405 366.68C193.232 368.813 191.898 371 190.405 373.24C189.018 375.373 186.725 378.2 183.525 381.72C182.245 383.107 180.485 384.493 178.245 385.88C176.112 387.16 174.032 388.333 172.005 389.4C169.978 390.467 168.538 391.213 167.685 391.64C166.832 392.067 165.712 392.28 164.325 392.28C162.938 392.28 161.392 392.12 159.685 391.8C158.085 391.48 156.698 391.32 155.525 391.32C154.885 391.32 154.298 391.373 153.765 391.48C153.232 391.587 152.858 391.907 152.645 392.44C150.938 395.213 150.085 397.987 150.085 400.76C150.085 402.467 150.458 403.907 151.205 405.08C152.058 406.147 153.445 406.68 155.365 406.68C156.005 406.68 156.698 406.627 157.445 406.52C158.192 406.413 158.938 406.2 159.685 405.88C161.498 405.56 162.778 405.4 163.525 405.4C164.272 405.4 165.072 405.293 165.925 405.08C166.885 404.867 168.432 404.333 170.565 403.48C172.912 402.52 174.672 401.827 175.845 401.4C177.125 400.973 178.085 400.6 178.725 400.28C179.472 399.96 180.218 399.587 180.965 399.16C181.712 398.733 182.885 398.093 184.485 397.24C185.658 396.6 186.298 396.28 186.405 396.28C186.618 396.28 186.938 396.173 187.365 395.96C187.792 395.64 188.912 394.893 190.725 393.72C192.645 392.44 194.138 391.8 195.205 391.8C195.952 391.8 196.325 392.067 196.325 392.6C196.325 393.027 195.952 393.667 195.205 394.52C194.565 395.373 193.392 396.387 191.685 397.56C189.872 398.84 187.792 400.333 185.445 402.04C183.205 403.747 181.125 405.08 179.205 406.04C178.565 406.147 177.978 406.413 177.445 406.84C177.018 407.16 176.378 407.427 175.525 407.64L166.565 411.48L166.725 411.32C167.045 411 166.672 411 165.605 411.32C164.645 411.64 163.365 412.12 161.765 412.76C160.272 413.4 158.778 413.933 157.285 414.36C155.898 414.893 154.885 415.16 154.245 415.16ZM160.485 387.64C160.912 387.64 161.338 387.64 161.765 387.64C162.192 387.533 162.618 387.427 163.045 387.32C163.792 386.68 164.485 386.2 165.125 385.88C165.765 385.56 166.618 385.027 167.685 384.28C168.752 383.533 170.245 382.2 172.165 380.28C173.765 378.68 175.152 377.56 176.325 376.92C177.498 376.173 178.458 375.373 179.205 374.52C181.445 371.427 182.618 369.08 182.725 367.48C182.938 365.88 183.045 364.387 183.045 363C181.765 361.293 180.592 360.44 179.525 360.44C178.885 360.44 177.925 360.707 176.645 361.24C174.832 361.987 173.338 362.68 172.165 363.32C171.098 363.96 169.498 365.347 167.365 367.48C164.912 370.04 162.672 372.547 160.645 375C158.618 377.347 157.018 379.747 155.845 382.2C155.738 382.627 155.578 383.053 155.365 383.48C155.258 383.8 155.205 384.067 155.205 384.28C155.205 385.453 155.738 386.307 156.805 386.84C157.872 387.373 159.098 387.64 160.485 387.64ZM211.122 412.92C209.203 412.92 207.549 412.28 206.163 411C204.776 409.72 204.083 407.693 204.083 404.92C204.083 401.507 204.776 397.187 206.163 391.96C207.549 386.733 209.149 381.773 210.963 377.08C212.136 374.2 213.149 371.8 214.003 369.88C214.856 367.853 215.656 365.987 216.403 364.28C216.936 363 217.149 362.04 217.043 361.4C217.043 360.76 217.043 360.067 217.043 359.32C217.043 358.04 217.523 357.133 218.483 356.6C219.443 356.067 220.349 355.693 221.203 355.48C223.229 354.733 225.149 354.04 226.963 353.4C228.883 352.653 230.536 352.28 231.923 352.28C233.203 352.28 234.376 352.813 235.443 353.88L235.603 354.04C235.923 354.36 236.083 354.733 236.083 355.16C236.189 355.587 236.243 355.96 236.243 356.28C236.243 357.24 235.709 358.36 234.643 359.64C233.576 360.92 231.923 363 229.683 365.88C227.016 369.187 224.883 372.227 223.283 375C221.683 377.667 220.349 380.173 219.283 382.52C217.896 385.72 216.936 388.547 216.403 391C215.869 393.453 215.603 395.693 215.603 397.72C215.603 398.36 215.603 399.267 215.603 400.44C215.709 401.507 215.763 401.773 215.763 401.24V401.08C216.083 402.147 216.616 402.68 217.363 402.68H217.523C217.736 402.68 217.949 402.733 218.163 402.84C218.376 402.84 218.749 402.787 219.283 402.68C220.989 402.147 222.909 401.08 225.043 399.48C227.176 397.773 229.309 395.96 231.443 394.04C233.576 392.12 235.389 390.467 236.883 389.08C237.203 388.76 237.576 388.44 238.003 388.12C238.536 387.8 239.016 387.427 239.443 387C239.763 386.68 239.976 386.307 240.083 385.88C240.296 385.453 240.616 385.027 241.043 384.6C244.563 381.293 247.816 377.827 250.803 374.2C253.789 370.573 256.296 367.32 258.323 364.44C260.456 361.453 262.003 359.533 262.963 358.68C264.563 357.293 266.216 356.6 267.923 356.6C270.696 356.6 272.936 357.88 274.643 360.44L272.563 365.72C272.243 366.36 271.656 367.64 270.803 369.56C269.949 371.373 268.989 373.453 267.923 375.8C266.963 378.147 266.003 380.44 265.043 382.68C264.083 384.813 263.389 386.627 262.963 388.12C262.643 389.187 262.483 389.987 262.483 390.52C262.483 390.947 262.269 391.587 261.843 392.44V392.28L261.523 398.52C261.523 398.52 261.576 398.893 261.683 399.64C261.896 400.28 262.109 400.973 262.323 401.72C262.643 402.36 262.963 402.68 263.283 402.68C263.496 402.68 264.136 402.467 265.203 402.04C266.376 401.613 267.176 401.187 267.603 400.76H267.763C267.976 400.76 268.456 400.653 269.203 400.44C269.949 400.227 270.376 400.067 270.483 399.96L270.643 399.8C272.136 398.947 273.789 398.04 275.603 397.08C277.416 396.013 279.923 394.413 283.123 392.28C285.789 390.36 288.243 388.067 290.483 385.4C292.723 382.627 294.803 380.013 296.723 377.56C298.643 375 300.403 373.08 302.003 371.8C302.216 371.693 302.589 370.947 303.123 369.56C303.763 368.067 304.243 367.16 304.563 366.84V366.68C304.883 366.68 305.149 365.987 305.363 364.6C305.683 363.213 305.949 362.307 306.163 361.88L306.003 362.04C306.429 361.4 306.696 361.027 306.803 360.92C306.909 360.813 307.016 360.76 307.123 360.76C307.229 360.76 307.283 360.653 307.283 360.44C307.283 360.227 307.443 359.16 307.763 357.24C307.763 356.92 307.869 356.12 308.083 354.84C308.296 353.453 308.349 352.707 308.243 352.6C308.243 352.6 308.189 352.067 308.083 351C308.083 349.933 308.136 348.76 308.243 347.48C308.349 346.093 308.563 344.92 308.883 343.96C309.203 342.893 309.683 342.413 310.323 342.52C312.456 343.267 313.736 344.707 314.163 346.84C314.696 348.973 314.963 351.107 314.963 353.24C314.963 354.307 314.749 355.853 314.323 357.88C314.003 359.907 313.256 362.627 312.083 366.04C311.869 366.787 311.549 367.747 311.123 368.92C310.696 370.093 309.949 371.427 308.883 372.92C308.349 373.667 307.816 374.467 307.283 375.32C306.856 376.067 306.109 376.813 305.043 377.56C304.509 377.88 303.709 378.84 302.643 380.44C301.683 381.933 300.936 382.947 300.403 383.48C297.096 386.253 294.163 388.813 291.603 391.16C289.043 393.507 285.896 396.493 282.163 400.12C281.843 400.44 280.936 401.027 279.443 401.88C278.056 402.733 276.723 403.587 275.443 404.44C274.163 405.187 273.416 405.72 273.203 406.04C273.203 406.04 272.563 406.307 271.283 406.84C270.003 407.373 268.509 407.96 266.803 408.6C265.096 409.24 263.549 409.88 262.163 410.52C260.776 411.053 259.976 411.427 259.763 411.64C258.909 412.067 257.843 412.28 256.563 412.28C255.176 412.28 254.163 412.067 253.523 411.64V411.8C252.883 411.373 252.456 410.893 252.243 410.36C252.029 409.72 251.816 409.293 251.603 409.08C250.429 407.587 249.843 405.293 249.843 402.2C249.843 398.893 250.323 395.587 251.283 392.28C252.136 389.08 252.563 386.52 252.563 384.6C252.669 382.68 252.936 380.813 253.363 379C251.976 380.387 250.536 381.88 249.043 383.48C247.656 384.973 245.949 386.68 243.923 388.6V388.76C243.496 388.867 243.016 389.08 242.483 389.4C241.949 389.72 241.576 389.933 241.363 390.04C240.936 390.467 240.296 391.16 239.443 392.12C238.696 393.08 238.163 393.773 237.843 394.2C234.856 396.867 232.189 399.32 229.843 401.56C227.496 403.693 224.829 405.667 221.843 407.48V407.32C221.736 407.427 221.629 407.587 221.523 407.8C221.523 408.013 221.469 408.227 221.363 408.44C221.363 408.653 221.309 408.76 221.203 408.76C220.776 408.867 220.349 408.92 219.923 408.92C219.496 408.92 219.123 409.027 218.803 409.24C218.163 409.453 217.523 409.88 216.883 410.52C216.243 411.16 215.603 411.693 214.963 412.12C213.576 412.653 212.296 412.92 211.122 412.92ZM345.075 339.8V396.44H333.555V351H313.235V339.8H345.075ZM345.075 391.64C352.595 403.48 366.675 408.92 385.715 409.56C403.475 410.36 440.435 409.88 459.795 408.6C458.355 411.32 456.435 416.92 455.955 420.44C437.875 421.24 403.635 421.56 385.715 420.76C364.595 419.96 350.035 414.36 340.115 401.72C333.075 408.6 325.715 415.48 317.715 422.52L311.475 410.84C318.515 405.72 327.155 398.52 334.675 391.64H345.075ZM314.675 287.32L323.795 280.76C333.715 287.96 344.915 299 349.875 306.84L339.955 314.36C335.475 306.36 324.435 295.16 314.675 287.32ZM416.435 278.2L429.395 281.08C424.755 291.32 418.995 303 414.515 310.52L404.595 307.64C408.915 299.48 413.875 287 416.435 278.2ZM378.355 301.72H453.555V312.12H378.355V388.28H366.675V310.84L375.635 301.72H378.355ZM372.915 328.92H449.555V339H372.915V328.92ZM372.915 355.8H449.235V366.04H372.915V355.8ZM366.675 383.48H456.275V393.88H366.675V383.48ZM406.355 306.52H417.875V387.48H406.355V306.52ZM380.755 277.08L392.595 280.44C383.315 303.16 368.275 324.28 352.435 337.88C350.515 335.48 346.035 330.84 343.315 328.76C358.835 316.44 372.595 297.4 380.755 277.08ZM462.515 420.12C460.808 420.12 459.368 420.013 458.195 419.8C457.022 419.587 456.488 419.107 456.595 418.36C456.382 418.36 456.062 418.147 455.635 417.72L455.475 417.4C455.475 416.547 455.742 415.853 456.275 415.32L456.435 415.16C456.542 415.053 456.702 415 456.915 415C457.662 415 458.515 415.107 459.475 415.32C460.435 415.533 461.128 415.587 461.555 415.48C466.142 414.093 470.302 412.333 474.035 410.2C477.875 408.067 481.128 405.827 483.795 403.48C484.862 402.627 485.822 401.72 486.675 400.76C487.635 399.8 488.488 398.893 489.235 398.04C489.448 397.72 489.768 397.507 490.195 397.4C490.728 397.187 491.048 397.027 491.155 396.92L491.315 396.76C491.315 396.547 491.262 396.387 491.155 396.28C491.155 396.067 491.262 395.747 491.475 395.32C493.608 392.333 494.675 390.04 494.675 388.44C494.675 387.48 494.408 386.893 493.875 386.68C492.702 385.613 491.048 384.76 488.915 384.12C486.888 383.48 484.862 382.947 482.835 382.52C480.808 381.987 479.262 381.507 478.195 381.08C476.275 380.227 475.315 378.787 475.315 376.76C475.315 374.733 476.115 372.44 477.715 369.88C479.422 367.213 481.768 364.547 484.755 361.88C489.555 357.827 494.622 354.573 499.955 352.12C505.288 349.56 509.982 348.28 514.035 348.28C516.168 348.28 518.035 348.707 519.635 349.56C521.235 350.413 522.355 351.8 522.995 353.72C523.315 354.68 523.475 355.587 523.475 356.44C523.475 357.827 523.102 359.053 522.355 360.12C521.715 361.08 520.915 361.56 519.955 361.56C519.742 361.56 519.315 361.613 518.675 361.72C518.142 361.827 517.662 361.827 517.235 361.72C516.808 361.507 516.382 361.133 515.955 360.6C515.528 360.067 515.208 359.8 514.995 359.8H514.835C514.408 359.587 514.088 359.373 513.875 359.16C513.768 358.947 513.448 358.84 512.915 358.84H512.275L509.075 358.68C507.475 358.68 505.662 359 503.635 359.64C501.608 360.28 499.208 361.507 496.435 363.32V363.16C495.475 363.907 494.462 364.867 493.395 366.04C492.328 367.107 491.315 368.227 490.355 369.4C489.715 370.04 488.968 370.68 488.115 371.32C487.368 371.96 486.888 372.547 486.675 373.08C486.248 373.933 486.035 374.68 486.035 375.32C486.035 375.96 486.302 376.493 486.835 376.92C488.542 377.667 490.888 378.52 493.875 379.48C496.862 380.333 499.955 381.827 503.155 383.96C503.795 384.387 504.435 385.08 505.075 386.04C505.822 386.893 506.195 388.013 506.195 389.4C506.195 390.467 505.982 391.48 505.555 392.44C505.235 392.973 504.755 393.613 504.115 394.36C503.475 395 503.048 395.587 502.835 396.12L502.675 396.28C500.755 398.2 498.302 400.707 495.315 403.8C492.328 406.787 488.115 409.933 482.675 413.24C478.515 415.8 474.622 417.56 470.995 418.52C467.368 419.587 464.542 420.12 462.515 420.12ZM527.354 412.12C526.394 412.12 525.754 411.693 525.434 410.84C525.114 409.773 524.634 408.707 523.994 407.64C523.46 406.467 523.354 404.867 523.674 402.84C523.674 402.84 523.887 402.253 524.314 401.08C524.74 399.8 525.167 398.627 525.594 397.56C526.127 396.387 526.66 395.16 527.194 393.88C527.727 392.6 528.314 390.787 528.954 388.44C529.38 387.373 529.914 385.72 530.554 383.48C531.3 381.24 532.207 379.213 533.274 377.4V377.56C534.874 374.68 536.527 371.853 538.234 369.08C540.047 366.2 541.86 363.373 543.674 360.6C543.14 361.027 542.394 361.347 541.434 361.56C540.26 361.987 538.98 362.467 537.594 363C536.207 363.427 535.034 363.64 534.074 363.64C532.687 363.64 531.727 363.107 531.194 362.04C530.767 360.973 530.554 360.44 530.554 360.44V360.28C530.554 359.107 530.554 357.88 530.554 356.6C530.66 355.213 531.514 354.04 533.114 353.08H533.274C533.487 353.08 533.807 353.133 534.234 353.24C534.767 353.347 535.087 353.4 535.194 353.4C535.62 353.187 536.154 352.867 536.794 352.44C537.434 352.013 538.127 351.8 538.874 351.8H539.034C540.847 351.8 542.767 351.747 544.794 351.64C546.82 351.533 548.527 351.32 549.914 351C550.554 350.147 551.14 349.347 551.674 348.6C552.207 347.747 552.42 347.213 552.314 347C552.42 346.467 552.794 345.72 553.434 344.76C554.18 343.693 554.714 342.947 555.034 342.52C555.247 341.987 555.674 341.4 556.314 340.76C557.06 340.013 557.434 339.533 557.434 339.32V339.16C557.54 338.947 557.594 338.573 557.594 338.04V336.76C557.594 336.227 557.647 335.693 557.754 335.16C557.967 334.52 558.287 333.987 558.714 333.56C559.46 332.813 560.047 331.907 560.474 330.84C561.007 329.773 561.967 328.813 563.354 327.96C564.314 327.32 565.22 327 566.074 327C567.567 327 568.687 327.64 569.434 328.92C570.18 330.093 570.767 331.053 571.194 331.8C571.3 332.227 571.834 332.653 572.794 333.08C573.86 333.4 574.394 334.04 574.394 335C574.394 335.853 573.754 336.867 572.474 338.04C572.047 338.573 571.3 339.427 570.234 340.6C569.167 341.667 568.207 342.627 567.354 343.48C566.607 344.227 565.274 345.987 563.354 348.76C565.06 348.653 566.82 348.387 568.634 347.96C570.447 347.533 572.314 347.32 574.234 347.32C574.767 347.427 575.674 347.32 576.954 347C578.234 346.573 579.407 346.36 580.474 346.36C580.9 346.36 581.22 346.68 581.434 347.32C581.754 347.853 581.967 348.28 582.074 348.6C581.647 349.24 580.74 349.827 579.354 350.36C578.074 350.893 577.114 351.213 576.474 351.32C576.047 351.32 574.927 351.48 573.114 351.8C571.3 352.12 569.434 352.493 567.514 352.92C565.7 353.24 564.42 353.4 563.674 353.4C563.034 353.293 562.394 353.667 561.754 354.52C561.114 355.267 560.367 355.693 559.514 355.8C558.874 356.653 558.18 357.293 557.434 357.72C556.794 358.04 556.207 358.573 555.674 359.32C554.287 361.347 553.114 363.107 552.154 364.6C551.194 365.987 550.5 366.947 550.074 367.48C549.54 368.12 548.794 369.133 547.834 370.52C546.98 371.8 546.074 373.133 545.114 374.52C544.154 375.907 543.354 376.92 542.714 377.56C542.287 378.2 541.594 379.267 540.634 380.76C539.674 382.147 538.874 383.16 538.234 383.8C537.7 384.547 537.274 385.187 536.954 385.72C536.74 386.253 536.314 387.107 535.674 388.28V388.12C535.14 389.08 534.554 390.36 533.914 391.96C533.274 393.453 532.847 394.893 532.634 396.28C532.527 396.813 532.42 397.4 532.314 398.04C532.314 398.68 532.314 399.267 532.314 399.8C532.314 401.187 532.367 402.467 532.474 403.64C532.687 404.707 532.794 405.667 532.794 406.52C532.794 408.013 532.154 409.347 530.874 410.52C529.7 411.587 528.527 412.12 527.354 412.12ZM582.234 348.44C582.234 348.44 582.18 348.493 582.074 348.6L582.234 348.28V348.44ZM571.149 410.84C569.442 410.84 568.109 410.573 567.149 410.04C566.189 409.4 565.282 408.76 564.429 408.12C562.509 406.52 561.549 403.587 561.549 399.32C561.549 396.227 562.135 392.707 563.309 388.76C564.482 384.707 566.402 380.493 569.069 376.12V376.28C570.242 374.147 571.415 372.013 572.589 369.88C573.869 367.747 575.202 365.667 576.589 363.64C577.015 363.213 577.442 362.947 577.869 362.84C578.295 362.627 578.615 362.413 578.829 362.2C578.829 361.773 578.935 361.187 579.149 360.44C579.469 359.587 579.842 359 580.269 358.68C582.189 356.12 584.375 354.2 586.829 352.92C589.282 351.64 591.202 350.573 592.589 349.72H592.429C593.069 349.4 593.815 349.24 594.669 349.24C596.802 349.24 599.309 350.04 602.189 351.64C602.615 351.64 603.042 351.587 603.469 351.48C604.002 351.267 604.535 351.16 605.069 351.16C606.135 351.16 607.202 351.533 608.269 352.28C609.442 353.027 609.922 354.2 609.709 355.8C609.602 356.12 609.549 356.387 609.549 356.6C609.549 356.813 609.549 357.027 609.549 357.24C609.549 358.413 609.975 359 610.829 359C611.255 359 611.682 358.947 612.109 358.84C612.535 358.733 612.962 358.68 613.389 358.68C614.562 358.68 616.215 358.52 618.349 358.2C620.482 357.773 622.509 357.4 624.429 357.08C626.455 356.653 627.842 356.44 628.589 356.44C629.015 356.76 629.229 357.133 629.229 357.56C629.229 357.987 629.015 358.467 628.589 359C628.269 359.533 627.895 359.907 627.469 360.12C627.469 360.12 626.775 360.333 625.389 360.76C624.109 361.08 622.509 361.507 620.589 362.04C618.669 362.573 616.749 363.107 614.829 363.64C613.015 364.067 611.575 364.333 610.509 364.44L608.909 364.6C608.802 365.88 608.482 367.267 607.949 368.76C607.415 370.253 606.829 371.907 606.189 373.72C605.975 374.253 605.815 374.947 605.709 375.8C605.602 376.547 605.389 377.347 605.069 378.2C604.322 379.48 603.469 380.76 602.509 382.04C601.549 383.32 600.642 384.653 599.789 386.04C599.149 387.107 598.455 388.28 597.709 389.56C597.069 390.733 596.269 391.96 595.309 393.24C593.175 396.013 590.669 398.787 587.789 401.56C585.015 404.227 582.135 406.467 579.149 408.28C576.269 409.987 573.602 410.84 571.149 410.84ZM572.589 405.56C574.722 405.56 577.655 404.067 581.389 401.08C585.229 397.987 588.802 394.04 592.109 389.24H591.949C592.802 387.96 593.655 386.467 594.509 384.76C595.469 383.053 596.215 381.613 596.749 380.44C596.749 380.44 597.015 380.12 597.549 379.48C598.189 378.84 598.829 378.147 599.469 377.4C600.109 376.547 600.482 375.907 600.589 375.48C600.695 375.267 600.749 375 600.749 374.68C600.749 374.467 600.695 374.307 600.589 374.2C600.589 373.987 600.589 373.667 600.589 373.24V373.08C601.229 371.48 601.762 370.04 602.189 368.76C602.615 367.48 602.882 366.36 602.989 365.4C602.242 365.4 601.069 365.347 599.469 365.24C597.869 365.133 596.535 365.027 595.469 364.92C594.509 364.813 594.509 364.76 595.469 364.76H595.949C595.949 364.653 595.469 364.44 594.509 364.12C593.549 363.8 592.802 363.533 592.269 363.32C591.949 363.427 591.629 363.48 591.309 363.48C590.775 363.48 590.349 363.373 590.029 363.16C589.815 362.947 589.549 363 589.229 363.32C588.802 363.747 588.535 364.28 588.429 364.92C588.322 365.56 587.895 366.253 587.149 367L586.989 367.16C586.989 367.053 586.722 367.16 586.189 367.48C585.655 367.8 585.442 367.96 585.549 367.96L585.389 368.28C585.175 368.387 585.015 368.707 584.909 369.24C584.909 369.667 584.749 370.147 584.429 370.68C583.362 372.387 582.189 374.2 580.909 376.12C579.735 377.933 578.615 379.693 577.549 381.4V381.24C576.482 383.16 575.415 385.24 574.349 387.48C573.282 389.72 572.482 391.907 571.949 394.04C571.949 394.573 571.842 395.107 571.629 395.64C571.522 396.067 571.469 396.44 571.469 396.76V396.92C571.469 398.093 571.255 399.107 570.829 399.96C570.402 400.813 570.189 401.667 570.189 402.52C570.509 403.267 570.615 403.853 570.509 404.28C570.402 404.6 570.562 404.867 570.989 405.08C571.522 405.4 572.055 405.56 572.589 405.56ZM627.924 413.4C627.604 413.4 626.91 413.133 625.844 412.6C624.884 412.173 623.87 411.693 622.804 411.16C621.844 410.733 621.097 410.52 620.564 410.52H620.404C619.017 410.52 618.004 410.093 617.364 409.24C616.83 408.28 616.457 407.16 616.244 405.88C616.03 404.6 615.817 403.533 615.604 402.68C615.284 401.4 615.124 400.067 615.124 398.68C615.124 393.88 616.724 388.333 619.924 382.04C623.23 375.64 627.604 369.347 633.044 363.16C636.884 358.787 640.777 355.373 644.724 352.92C648.67 350.467 652.244 349.08 655.444 348.76C657.15 348.547 658.91 348.973 660.724 350.04C662.537 351.107 663.817 351.64 664.564 351.64H664.724C667.71 351.64 669.737 352.653 670.804 354.68C671.87 356.6 672.404 358.467 672.404 360.28C672.404 361.88 672.03 363.427 671.284 364.92C670.537 365.987 669.364 366.52 667.764 366.52C665.737 366.52 664.404 365.933 663.764 364.76C663.017 363.053 661.63 361.72 659.604 360.76C657.577 359.8 655.657 359.32 653.844 359.32C652.03 359.32 650.057 360.12 647.924 361.72C645.897 363.32 643.817 365.24 641.684 367.48C635.177 374.2 630.644 380.493 628.084 386.36C625.63 392.12 624.404 396.653 624.404 399.96C624.404 400.387 624.404 400.813 624.404 401.24C624.51 401.56 624.564 401.88 624.564 402.2V402.36C624.564 403.107 625.257 403.907 626.644 404.76C628.03 405.507 629.577 405.773 631.284 405.56C634.164 405.24 636.564 404.76 638.484 404.12C640.404 403.48 642.857 402.307 645.844 400.6C645.95 400.6 646.484 400.333 647.444 399.8C648.404 399.267 649.364 398.733 650.324 398.2C651.39 397.56 651.977 397.24 652.084 397.24C653.257 396.6 653.897 396.28 654.004 396.28C654.217 396.28 654.537 396.173 654.964 395.96C655.39 395.64 656.51 394.893 658.324 393.72C660.244 392.44 661.737 391.8 662.804 391.8C663.55 391.8 663.924 392.067 663.924 392.6C663.924 393.027 663.55 393.667 662.804 394.52C662.164 395.373 660.99 396.387 659.284 397.56C657.15 398.947 655.39 400.013 654.004 400.76C652.724 401.507 651.55 402.253 650.484 403C649.417 403.64 648.244 404.6 646.964 405.88L646.804 406.04C646.59 406.04 646.004 406.253 645.044 406.68C644.19 407.107 643.337 407.533 642.484 407.96C641.63 408.28 641.15 408.493 641.044 408.6C640.617 408.92 639.497 409.507 637.684 410.36C635.977 411.107 634.164 411.8 632.244 412.44C630.324 413.08 628.884 413.4 627.924 413.4ZM676.714 412.12C675.967 412.12 675.327 412.067 674.794 411.96C674.367 411.853 674.1 411.8 673.994 411.8L673.834 411.64C673.514 411.32 673.247 411.053 673.034 410.84C672.927 410.627 672.714 410.413 672.394 410.2C671.967 409.88 671.434 409.507 670.794 409.08C670.154 408.547 669.834 407.427 669.834 405.72C669.834 404.227 670.154 402.093 670.794 399.32C671.54 396.44 672.927 392.6 674.954 387.8H675.114C676.607 385.56 677.834 383.267 678.794 380.92C679.86 378.467 680.927 376.28 681.994 374.36V374.68C681.994 374.467 682.58 373.453 683.754 371.64C684.927 369.72 686.314 367.427 687.914 364.76C689.62 362.093 691.327 359.427 693.034 356.76C694.74 354.093 696.18 351.8 697.354 349.88C698.634 347.96 699.327 346.893 699.434 346.68V347C699.54 346.467 699.967 345.667 700.714 344.6C701.46 343.533 701.887 342.947 701.994 342.84H701.834C702.9 341.133 703.594 339.853 703.914 339C704.34 338.04 704.767 337.133 705.194 336.28C705.727 335.32 706.634 334.04 707.914 332.44C708.447 331.587 709.354 330.36 710.634 328.76C712.02 327.16 713.034 325.987 713.674 325.24C714.207 324.707 714.847 323.8 715.594 322.52C716.34 321.133 717.14 320.227 717.994 319.8C719.487 319.053 721.3 318.36 723.434 317.72C725.567 317.08 727.487 316.76 729.194 316.76C731.86 316.76 733.354 317.667 733.674 319.48C733.674 323.107 731.487 327 727.114 331.16C726.047 332.227 724.66 333.347 722.954 334.52C721.247 335.693 719.967 336.867 719.114 338.04H719.274C718.1 339.747 716.554 341.347 714.634 342.84C712.82 344.333 711.434 345.667 710.474 346.84C709.727 347.907 708.767 348.813 707.594 349.56C706.42 350.2 705.514 350.947 704.874 351.8C700.074 358.307 696.34 363.853 693.674 368.44C691.007 372.92 689.354 375.747 688.714 376.92C688.287 377.667 687.7 378.84 686.954 380.44C686.314 381.933 685.674 383.48 685.034 385.08C684.394 386.573 683.914 387.693 683.594 388.44C683.06 390.147 682.527 391.32 681.994 391.96C681.46 392.493 681.087 393.24 680.874 394.2C681.087 394.2 681.46 394.467 681.994 395C682.527 395.427 682.954 395.48 683.274 395.16L688.874 391C690.367 389.827 691.54 388.76 692.394 387.8C693.247 386.84 694.954 385.187 697.514 382.84C697.834 382.627 698.474 382.093 699.434 381.24C700.394 380.387 701.407 379.427 702.474 378.36C703.327 376.653 704.234 374.947 705.194 373.24C706.154 371.427 707.327 369.72 708.714 368.12C711.807 364.387 715.114 361.507 718.634 359.48C722.26 357.347 725.567 356.12 728.554 355.8C730.154 355.8 731.86 355.853 733.674 355.96C735.594 355.96 737.087 356.173 738.154 356.6C739.647 357.347 740.607 358.2 741.034 359.16C741.46 360.12 741.674 361.027 741.674 361.88C741.674 363.053 741.514 363.907 741.194 364.44C740.767 365.08 740.234 365.667 739.594 366.2C738.954 366.733 737.94 367 736.554 367C735.807 366.787 735.06 366.307 734.314 365.56C733.674 364.813 732.287 364.44 730.154 364.44C729.194 364.867 728.287 365.347 727.434 365.88C726.687 366.307 725.727 366.893 724.554 367.64V367.8C723.06 368.76 721.727 369.667 720.554 370.52C719.487 371.373 718.527 372.173 717.674 372.92C717.247 373.347 716.5 373.88 715.434 374.52C714.474 375.16 713.354 375.907 712.074 376.76H712.234C710.847 378.787 709.887 380.867 709.354 383C708.82 385.027 708.554 386.947 708.554 388.76C708.554 391.64 709.034 394.2 709.994 396.44C711.06 398.573 712.18 400.173 713.354 401.24C713.994 401.667 714.9 402.253 716.074 403C717.354 403.747 718.847 404.12 720.554 404.12C723.434 404.12 725.78 403.8 727.594 403.16C729.407 402.413 731.754 401.347 734.634 399.96H734.794C734.687 399.853 735.167 399.96 736.234 400.28C737.3 400.6 737.834 401.187 737.834 402.04C737.834 402.573 737.3 403.373 736.234 404.44L736.074 404.6L730.794 407C730.367 407.32 729.3 407.8 727.594 408.44C725.994 409.08 724.34 409.667 722.634 410.2C720.927 410.733 719.647 411 718.794 411C718.474 411 717.78 410.787 716.714 410.36C715.647 409.933 714.527 409.507 713.354 409.08C712.287 408.653 711.434 408.44 710.794 408.44C709.3 408.227 708.234 407.693 707.594 406.84C706.954 405.987 706.474 405.08 706.154 404.12C705.834 403.16 705.354 402.413 704.714 401.88C701.62 399 700.074 395.053 700.074 390.04C700.074 389.4 700.074 388.813 700.074 388.28C700.18 387.64 700.287 387 700.394 386.36C699.54 387.107 698.74 387.853 697.994 388.6C697.247 389.24 696.767 389.667 696.554 389.88L694.794 391C693.3 392.707 691.967 394.36 690.794 395.96C689.62 397.453 688.34 399 686.954 400.6H686.634C686.634 400.493 686.207 401.027 685.354 402.2C684.5 403.267 684.074 403.8 684.074 403.8C683.86 404.12 683.434 404.867 682.794 406.04C682.154 407.213 681.46 408.387 680.714 409.56C680.074 410.627 679.54 411.32 679.114 411.64C678.474 411.96 677.674 412.12 676.714 412.12Z" fill="black"/>
</g>
</svg>
